<svg xmlns="http://www.w3.org/2000/svg" viewBox="0 0 180 204.2">
  <path fill='#D9272E' d="M107.6 23.6v-7.2h4v-12h-43v12h4v7.3c-39 7.7-68 42.9-68 85.2 0 47.9 40 86.8 88 86.8 47.9 0 86.4-38.9 86.4-86.8 0-42.5-32.4-77.9-71.4-85.3zM93.7 154c-24.6 0-44.5-19.9-44.5-44.5S69.1 65 93.7 65s44.5 19.9 44.5 44.5-20 44.5-44.5 44.5z"/>
  <path fill='#D9272E' d="M111.5 110l-14.8-8.2 4.9-20.5c.3-1.2-1.2-2-2-1.1L75.5 106c-.5.6-.4 1.5.3 1.8l14.8 8.2-4.9 20.5c-.3 1.2 1.2 2 2 1.1l24.1-25.8c.5-.6.3-1.5-.3-1.8"/>
</svg>
