<svg height="64" width="64" xmlns="http://www.w3.org/2000/svg">
  <path d="M11.028 45.416h41.943c1.658 0 2.996-1.342 2.996-2.996V12.46c0-2.206-1.787-3.994-3.992-3.994H12.026c-2.206 0-3.993 1.788-3.993 3.994v29.96c0 1.654 1.342 2.996 2.995 2.996zm2.005-31.95h37.934v26.95H13.033v-26.95zM57.854 47.252H6.147c-.553 0-1 .447-1 1v3.701c0 1.979 2.009 3.58 4.486 3.58h44.734c2.477 0 4.486-1.602 4.486-3.58v-3.701c.001-.553-.447-1-.999-1zm-19.616 5.141H25.761c-.552 0-1-.447-1-1s.448-1 1-1h12.477c.553 0 1 .447 1 1s-.447 1-1 1z"/>
</svg>
