<?xml version="1.0" ?><!DOCTYPE svg  PUBLIC '-//W3C//DTD SVG 1.1//EN'  'http://www.w3.org/Graphics/SVG/1.1/DTD/svg11.dtd'><svg enable-background="new 0 0 100 100" height="100px" id="Layer_1" version="1.1" viewBox="0 0 100 100" width="100px" xml:space="preserve" xmlns="http://www.w3.org/2000/svg" xmlns:xlink="http://www.w3.org/1999/xlink"><g><path clip-rule="evenodd" d="M52.557,62.821c-0.977-0.411-2.023-0.629-3.078-0.629   c-1.056,0-2.095,0.213-3.059,0.615c-0.959,0.401-1.844,0.994-2.595,1.754c-0.799,0.813-0.788,2.12,0.024,2.919l4.182,4.129h0   c0.801,0.788,2.089,0.792,2.893,0l4.2-4.109c0.813-0.799,0.824-2.106,0.025-2.919C54.408,63.824,53.525,63.229,52.557,62.821z" fill-rule="evenodd"/><path clip-rule="evenodd" d="M26.948,51.382c-0.727,0.874-0.608,2.173,0.267,2.901   c0.875,0.727,2.174,0.607,2.901-0.268c1.531-1.838,3.3-3.426,5.241-4.739l7.604-7.723c-2.043,0.468-4.029,1.15-5.922,2.038   C33.191,45.395,29.733,48.035,26.948,51.382z" fill-rule="evenodd"/><path clip-rule="evenodd" d="M49.479,28.565c-6.019,0-11.9,1.312-17.271,3.766   c-5.362,2.449-10.203,6.037-14.149,10.593c-0.746,0.862-0.651,2.165,0.21,2.91c0.862,0.745,2.165,0.651,2.91-0.209   c3.556-4.106,7.916-7.338,12.742-9.543c4.818-2.202,10.115-3.378,15.558-3.378c0.714,0,1.426,0.023,2.135,0.063l3.715-3.772   C53.4,28.72,51.449,28.565,49.479,28.565z" fill-rule="evenodd"/><path clip-rule="evenodd" d="M50.001,5.108c-24.754,0-44.893,20.138-44.893,44.893   c0,24.752,20.139,44.891,44.893,44.891c24.755,0,44.892-20.139,44.892-44.891C94.893,25.247,74.756,5.108,50.001,5.108z    M14.788,50.001c0-19.417,15.797-35.213,35.213-35.213c7.958,0,15.306,2.658,21.21,7.126L21.915,71.211   C17.445,65.307,14.788,57.959,14.788,50.001z M50.001,85.213c-7.975,0-15.335-2.669-21.245-7.154l21.493-21.492   c1.884,0.104,3.698,0.596,5.337,1.42c1.875,0.942,3.529,2.314,4.811,4.04c0.678,0.914,1.969,1.105,2.885,0.428   s1.107-1.971,0.428-2.886c-1.674-2.252-3.828-4.043-6.264-5.268c-1.145-0.575-2.35-1.021-3.592-1.339l5.838-5.838   c0.143,0.063,0.289,0.121,0.43,0.187c3.299,1.537,6.26,3.783,8.648,6.628c0.732,0.876,2.035,0.991,2.91,0.259   c0.875-0.731,0.99-2.034,0.258-2.908c-2.563-3.053-5.686-5.502-9.145-7.267l5.973-5.974c3.447,2.069,6.572,4.698,9.229,7.819   c0.736,0.866,2.035,0.971,2.9,0.234c0.865-0.735,0.971-2.035,0.234-2.901c-2.73-3.208-5.902-5.932-9.375-8.14l6.305-6.304   c4.486,5.909,7.154,13.27,7.154,21.244C85.213,69.417,69.418,85.213,50.001,85.213z" fill-rule="evenodd"/></g></svg>