<svg height="1024" width="768" xmlns="http://www.w3.org/2000/svg">
  <path d="M0 128v128s1.906 64 64 64h640l64-64V128s-.5-64-64-64H64C-.906 64 0 128 0 128zm0 320v128s1.906 64 64 64h640l64-64V448s-.5-64-64-64H64c-64.906 0-64 64-64 64zm0 320v128s1.906 64 64 64h640l64-64V768s-.5-64-64-64H64c-64.906 0-64 64-64 64zm64-192V448h64v128H64zm128 0V448h64v128h-64zm128 0V448h64v128h-64zm128 0V448h64v128h-64zm192-64v-64h64v64h-64zM64 256V128h64v128H64zm128 0V128h64v128h-64zm128 0V128h64v128h-64zm128 0V128h64v128h-64zm192-64v-64h64v64h-64zM64 896V768h64v128H64zm128 0V768h64v128h-64zm128 0V768h64v128h-64zm128 0V768h64v128h-64zm192-64v-64h64v64h-64z"/>
</svg>
